<svg width="330" height="220" fill="none" xmlns="http://www.w3.org/2000/svg"><path fill-rule="evenodd" clip-rule="evenodd" d="M69 111a4 4 0 0 1 4-4h184a4 4 0 0 1 4 4v10H69v-10z" fill="#fff" stroke="#212121"/><circle cx="77" cy="114" r="2.5" fill="#00E676" stroke="#212121"/><circle cx="87" cy="114" r="2.5" fill="#006776" stroke="#212121"/><circle cx="97" cy="114" r="2.5" fill="#00BFA5" stroke="#212121"/><path d="M261 203v-82H69v82" stroke="#212121"/><rect x="87.5" y="135.5" width="155" height="63" rx="31.5" stroke="#212121" stroke-dasharray="2 4"/><rect x="95.5" y="143.5" width="139" height="47" rx="23.5" fill="#46DEC9" stroke="#212121"/><path d="M166 166.302V157h6.849a4.65 4.65 0 1 1 0 9.302H166zm0 0v10.321h7.34a5.16 5.16 0 0 0 5.16-5.161 5.16 5.16 0 0 0-5.16-5.16H166zM186 157v13.873a5.75 5.75 0 0 0 11.5 0V157M204.5 157l6.5 9.434m0 0 6-9.434m-6 9.434V177M132 160l1.25-5H137m-5 5h-6.5m6.5 0-1.5 6m-12-6H112l1.5 6m5-6 1 12m-1-12h7m-6 12H115l-1.5-6m6 6h5.25m.75-12-.75 12m0 0H129l1.5-6m-17 0h17" stroke="#212121"/><circle cx="115.5" cy="176.5" r="2" stroke="#212121"/><circle cx="128.5" cy="176.5" r="2" stroke="#212121"/><path d="M156.799 207c-1.2-6.076-2.497-10.048-3.889-11.917-1.218-1.634-3.678-5.129-7.379-10.482a2.997 2.997 0 0 1 .707-4.129 3.096 3.096 0 0 1 4.217.552l4.722 5.799v-24.24a3.644 3.644 0 0 1 7.285 0v19.607-7.26a3.8 3.8 0 0 1 7.6 0l.001 7.26v-5.991a3.65 3.65 0 1 1 7.301 0v6.771-4.105a3.455 3.455 0 0 1 3.453-3.455 3.503 3.503 0 0 1 3.503 3.503c.001 6.382-.516 11.427-1.552 15.132A84.32 84.32 0 0 1 177.949 207h-21.15z" fill="#fff"/><path d="M156.799 207c-1.2-6.076-2.497-10.048-3.889-11.917-1.218-1.634-3.678-5.129-7.379-10.482a2.997 2.997 0 0 1 .707-4.129 3.096 3.096 0 0 1 4.217.552l4.722 5.799v-24.24a3.644 3.644 0 0 1 7.285 0v19.607-7.26a3.8 3.8 0 0 1 7.6 0l.001 7.26v-5.991a3.65 3.65 0 1 1 7.301 0v6.771-4.105a3.455 3.455 0 0 1 3.453-3.455 3.503 3.503 0 0 1 3.503 3.503c.001 6.382-.516 11.427-1.552 15.132A84.32 84.32 0 0 1 177.949 207" stroke="#212121" stroke-linecap="round" stroke-linejoin="round"/><path d="M165 93.5v50m0-50-6 6m6-6 6 6" stroke="#212121" stroke-linecap="round"/><path d="M132 76v18M143 87v13M186 89v11M199 83v14" stroke="#212121" stroke-dasharray="2 2"/><circle cx="170" cy="58" r="26.5" fill="#F1AF00" stroke="#212121"/><circle cx="167" cy="55" r="26.5" fill="#F1AF00" stroke="#212121"/><circle cx="164" cy="52" r="26.5" fill="#F1AF00" stroke="#212121"/><circle cx="161" cy="49" r="26.5" fill="#F1AF00" stroke="#212121"/><circle cx="158" cy="46" r="27" fill="#FFEE43"/><mask id="a" mask-type="alpha" maskUnits="userSpaceOnUse" x="136" y="24" width="44" height="44"><circle cx="158" cy="46" r="22" fill="#fff"/></mask><g mask="url(#a)"><circle cx="158" cy="46" r="27" fill="#FFC836"/><path fill-rule="evenodd" clip-rule="evenodd" d="M177.341 27.16 139.16 65.34C134.126 60.437 131 53.584 131 46c0-14.912 12.088-27 27-27 7.583 0 14.436 3.126 19.341 8.16z" fill="#FFEE43"/><path d="M148 23v46M138 23v46M158 23v46M168 23v46M178 23v46M134 36h46M134 26h46M134 46h46M134 56h46M134 66h46" stroke="#212121"/><circle cx="147.886" cy="36.886" r="1.886" fill="#FFC836" stroke="#212121"/><circle cx="167.886" cy="45.886" r="1.886" fill="#FF8100" stroke="#212121"/></g><path d="M158.273 67.636c-12.05 0-21.818-9.768-21.818-21.818S146.223 24 158.273 24" stroke="#212121" stroke-linecap="round"/><circle cx="158" cy="46" r="26.5" stroke="#212121"/><path d="M172.5 69.5 184 81M166.5 71.5 178 83M161.5 73.5 173 85M156.5 73.5 168 85M151.5 72.5 163 84M181.5 60.5 193 72M183.5 55.5 195 67M184.5 51.5 196 63M185.5 47.5 197 59M185.5 44.5 197 56M184.5 40.5 196 52M183.5 36.5 195 48M177.5 65.5 189 77" stroke="#212121" stroke-linecap="round" stroke-dasharray="2 2"/><path d="M130.5 13v12m-5.5-6h11M177.5 21v12m-5.5-6h11M126.5 60v12m-5.5-6h11" stroke="#212121" stroke-linecap="round"/></svg>